<svg width="55" height="45" viewBox="0 0 55 45" fill="none" xmlns="http://www.w3.org/2000/svg">
<path d="M53.4545 12.9626L27.9365 0.200601C27.6412 0.0683593 27.3212 0 26.9975 0C26.6739 0 26.3539 0.0683593 26.0585 0.200601L0.546531 12.9626C0.387637 13.0144 0.249201 13.1151 0.151034 13.2504C0.0528664 13.3856 0 13.5485 0 13.7156C0 13.8827 0.0528664 14.0456 0.151034 14.1808C0.249201 14.3161 0.387637 14.4168 0.546531 14.4686L4.40453 16.3946H4.20053V37.7186C3.91449 37.8822 3.68288 38.1264 3.53453 38.4206L1.86653 41.7926C1.73901 42.0494 1.67905 42.3344 1.69234 42.6207C1.70562 42.9071 1.79171 43.1854 1.94245 43.4292C2.0932 43.673 2.30363 43.8744 2.55386 44.0143C2.80409 44.1542 3.08586 44.2279 3.37253 44.2286H6.75053C7.03853 44.2295 7.32195 44.1565 7.57377 44.0168C7.82558 43.877 8.03739 43.675 8.189 43.4302C8.34062 43.1853 8.42697 42.9057 8.43985 42.618C8.45272 42.3302 8.39167 42.044 8.26253 41.7866L6.60053 38.4206C6.45218 38.1264 6.22058 37.8822 5.93453 37.7186V17.1446L10.1345 19.2566V29.6846C10.1345 32.0486 11.9345 34.2446 15.1865 35.8706C18.3545 37.4546 22.5545 38.3246 27.0125 38.3246C31.4705 38.3246 35.6705 37.4546 38.8385 35.8706C42.0965 34.2446 43.8905 32.0426 43.8905 29.6846V19.2566L53.4905 14.4566C53.6494 14.4048 53.7879 14.3041 53.886 14.1688C53.9842 14.0336 54.0371 13.8707 54.0371 13.7036C54.0371 13.5365 53.9842 13.3736 53.886 13.2384C53.7879 13.1031 53.6494 13.0024 53.4905 12.9506L53.4545 12.9626ZM6.75053 42.5486H3.37253L5.05853 39.1766L6.75053 42.5486ZM42.1865 29.6846C42.1865 31.3766 40.7225 33.0386 38.0705 34.3646C35.1365 35.8286 31.2005 36.6446 27.0005 36.6446C22.8005 36.6446 18.8645 35.8286 15.9305 34.3646C13.2785 33.0386 11.8145 31.3646 11.8145 29.6846V20.0846L26.0585 27.2246C26.3539 27.3568 26.6739 27.4252 26.9975 27.4252C27.3212 27.4252 27.6412 27.3568 27.9365 27.2246L42.1865 20.0966V29.6846ZM27.1865 25.7066C27.1229 25.7169 27.0581 25.7169 26.9945 25.7066C26.9328 25.7152 26.8702 25.7152 26.8085 25.7066L2.80853 13.7066L26.8085 1.7066C26.8721 1.69629 26.9369 1.69629 27.0005 1.7066C27.0622 1.69798 27.1248 1.69798 27.1865 1.7066L51.1865 13.7066L27.1865 25.7066Z" fill="black"/>
</svg>
