<svg width="31" height="35" viewBox="0 0 31 35" fill="none" xmlns="http://www.w3.org/2000/svg">
<path d="M25.9007 17.742C25.7754 17.6176 25.6269 17.5191 25.4635 17.4521C25.3001 17.3851 25.1252 17.3509 24.9486 17.3516C24.772 17.3522 24.5973 17.3876 24.4345 17.4557C24.2716 17.5239 24.1237 17.6234 23.9993 17.7487C23.8749 17.874 23.7764 18.0226 23.7094 18.1859C23.6424 18.3493 23.6082 18.5243 23.6089 18.7008C23.6095 18.8774 23.6449 19.0521 23.713 19.215C23.7812 19.3779 23.8807 19.5257 24.006 19.6501C25.1431 20.7751 26.0456 22.1145 26.6615 23.5907C27.2773 25.0669 27.5942 26.6506 27.5938 28.2501C27.5938 29.8895 22.8773 32.2814 15.5001 32.2814C8.1229 32.2814 3.40633 29.8895 3.40633 28.2501C3.4042 26.6612 3.71522 25.0873 4.32161 23.6186C4.92801 22.1499 5.81789 20.8151 6.9404 19.6904C7.19067 19.4387 7.33115 19.0981 7.33115 18.7431C7.33115 18.3881 7.19067 18.0475 6.9404 17.7958C6.68863 17.5455 6.34805 17.405 5.99305 17.405C5.63805 17.405 5.29748 17.5455 5.04571 17.7958C3.66851 19.1653 2.57688 20.7945 1.83413 22.5891C1.09138 24.3837 0.71229 26.3079 0.718833 28.2501C0.718833 32.6173 8.3379 34.9689 15.5001 34.9689C22.6623 34.9689 30.2813 32.6173 30.2813 28.2501C30.2865 26.2953 29.9017 24.3591 29.1495 22.5548C28.3974 20.7505 27.2929 19.1143 25.9007 17.742Z" fill="black"/>
<path d="M15.5 18.8438C17.3604 18.8438 19.179 18.2921 20.7258 17.2585C22.2727 16.2249 23.4783 14.7559 24.1902 13.0371C24.9022 11.3184 25.0885 9.42707 24.7255 7.60244C24.3626 5.7778 23.4667 4.10177 22.1512 2.78628C20.8357 1.47079 19.1597 0.574935 17.3351 0.211993C15.5104 -0.15095 13.6192 0.0353256 11.9004 0.747262C10.1816 1.4592 8.71256 2.66482 7.67899 4.21167C6.64542 5.75852 6.09375 7.57712 6.09375 9.4375C6.09375 11.9322 7.08476 14.3247 8.84878 16.0887C10.6128 17.8527 13.0053 18.8438 15.5 18.8438ZM15.5 2.71875C16.8288 2.71875 18.1278 3.1128 19.2327 3.85107C20.3376 4.58933 21.1988 5.63866 21.7073 6.86635C22.2158 8.09404 22.3489 9.44496 22.0897 10.7483C21.8304 12.0516 21.1905 13.2487 20.2509 14.1884C19.3112 15.128 18.1141 15.7679 16.8108 16.0272C15.5075 16.2864 14.1565 16.1533 12.9288 15.6448C11.7012 15.1363 10.6518 14.2751 9.91356 13.1702C9.1753 12.0653 8.78125 10.7663 8.78125 9.4375C8.78125 7.65558 9.48912 5.94664 10.7491 4.68663C12.0091 3.42662 13.7181 2.71875 15.5 2.71875Z" fill="black"/>
</svg>
