<svg width="40" height="46" viewBox="0 0 40 46" fill="none" xmlns="http://www.w3.org/2000/svg">
<path d="M18.7885 27.1022V22.5624C18.7881 22.2502 18.6639 21.9509 18.4431 21.7301C18.2224 21.5093 17.923 21.3851 17.6108 21.3848H15.9162C15.7919 21.3848 15.6727 21.4342 15.5848 21.5221C15.4969 21.61 15.4475 21.7292 15.4475 21.8535C15.4475 21.9778 15.4969 22.0971 15.5848 22.185C15.6727 22.2729 15.7919 22.3223 15.9162 22.3223H17.6108C17.6744 22.3223 17.7355 22.3477 17.7805 22.3927C17.8255 22.4377 17.8508 22.4987 17.8509 22.5624V27.1022C17.8508 27.1659 17.8255 27.2269 17.7805 27.2719C17.7355 27.3169 17.6744 27.3423 17.6108 27.3423H5.57438C5.51071 27.3423 5.44967 27.3169 5.40465 27.2719C5.35963 27.2269 5.3343 27.1659 5.33423 27.1022V22.5624C5.33431 22.4987 5.35963 22.4377 5.40465 22.3927C5.44967 22.3477 5.51071 22.3223 5.57438 22.3223H13.4323C13.5567 22.3223 13.6759 22.2729 13.7638 22.185C13.8517 22.0971 13.9011 21.9778 13.9011 21.8535C13.9011 21.7292 13.8517 21.61 13.7638 21.5221C13.6759 21.4342 13.5567 21.3848 13.4323 21.3848H5.57438C5.26216 21.3851 4.96282 21.5093 4.74204 21.7301C4.52127 21.9508 4.39708 22.2502 4.39673 22.5624V27.1022C4.39708 27.4144 4.52127 27.7138 4.74204 27.9345C4.96282 28.1553 5.26216 28.2795 5.57438 28.2798H17.6108C17.923 28.2795 18.2224 28.1553 18.4431 27.9345C18.6639 27.7138 18.7881 27.4144 18.7885 27.1022Z" fill="black"/>
<path d="M24.6061 21.3848H21.3929C21.1336 21.3851 20.885 21.4882 20.7016 21.6716C20.5182 21.855 20.4151 22.1036 20.4148 22.3629V27.3017C20.4151 27.561 20.5182 27.8096 20.7016 27.993C20.885 28.1764 21.1336 28.2796 21.3929 28.2799H24.6061C24.8654 28.2796 25.1141 28.1764 25.2974 27.993C25.4808 27.8096 25.5839 27.561 25.5842 27.3017V22.3629C25.5839 22.1036 25.4808 21.855 25.2974 21.6716C25.114 21.4882 24.8654 21.3851 24.6061 21.3848ZM24.6467 27.3016C24.6467 27.3124 24.6424 27.3228 24.6348 27.3304C24.6272 27.338 24.6169 27.3423 24.6061 27.3423H21.3929C21.3822 27.3423 21.3718 27.338 21.3642 27.3304C21.3566 27.3228 21.3523 27.3124 21.3523 27.3016V22.3629C21.3523 22.3521 21.3566 22.3418 21.3642 22.3342C21.3718 22.3265 21.3822 22.3222 21.3929 22.3222H24.6061C24.6169 22.3222 24.6272 22.3265 24.6348 22.3342C24.6424 22.3418 24.6467 22.3521 24.6467 22.3629V27.3016Z" fill="black"/>
<path d="M24.9875 32.8203H16.1804C16.0561 32.8203 15.9369 32.8697 15.849 32.9576C15.7611 33.0455 15.7117 33.1647 15.7117 33.2891C15.7117 33.4134 15.7611 33.5326 15.849 33.6205C15.9369 33.7084 16.0561 33.7578 16.1804 33.7578H24.9875C25.1118 33.7578 25.2311 33.7084 25.319 33.6205C25.4069 33.5326 25.4563 33.4134 25.4563 33.2891C25.4563 33.1647 25.4069 33.0455 25.319 32.9576C25.2311 32.8697 25.1118 32.8203 24.9875 32.8203Z" fill="black"/>
<path d="M24.9875 30.4258H16.1804C16.0561 30.4258 15.9369 30.4752 15.849 30.5631C15.7611 30.651 15.7117 30.7702 15.7117 30.8945C15.7117 31.0189 15.7611 31.1381 15.849 31.226C15.9369 31.3139 16.0561 31.3633 16.1804 31.3633H24.9875C25.1118 31.3633 25.2311 31.3139 25.319 31.226C25.4069 31.1381 25.4563 31.0189 25.4563 30.8945C25.4563 30.7702 25.4069 30.651 25.319 30.5631C25.2311 30.4752 25.1118 30.4258 24.9875 30.4258Z" fill="black"/>
<path d="M39.858 10.4396C39.858 7.73205 38.7903 5.13371 36.8867 3.20832C34.9831 1.28293 32.3971 0.185804 29.6897 0.154965C26.9823 0.124125 24.372 1.16206 22.425 3.04359C20.4781 4.92512 19.3515 7.49846 19.2898 10.2053H9.60768V10.1705C9.60733 9.86064 9.48409 9.56359 9.265 9.3445C9.04591 9.12541 8.74885 9.00217 8.43901 9.00182H5.56544C5.2556 9.00217 4.95855 9.12541 4.73946 9.3445C4.52037 9.56359 4.39713 9.86064 4.39677 10.1705V10.2708C3.21062 10.4633 2.1315 11.0711 1.35212 11.9858C0.572751 12.9004 0.143877 14.0624 0.14209 15.264V42.1089V42.1107C0.141884 42.6013 0.238369 43.0872 0.426029 43.5405C0.613689 43.9938 0.888846 44.4057 1.23577 44.7527C1.5827 45.0996 1.99459 45.3747 2.44791 45.5624C2.90123 45.7501 3.38709 45.8465 3.87772 45.8463H29.3379C29.4627 45.8453 29.582 45.795 29.6699 45.7064C29.7577 45.6177 29.8069 45.4979 29.8067 45.3731V42.1107C29.8067 41.9864 29.7573 41.8672 29.6694 41.7793C29.5815 41.6913 29.4623 41.642 29.3379 41.642C29.2136 41.642 29.0944 41.6913 29.0065 41.7793C28.9186 41.8672 28.8692 41.9864 28.8692 42.1107V44.8371C28.2112 44.6852 27.6304 44.3004 27.2339 43.7538C26.8374 43.2072 26.652 42.5356 26.7119 41.863C26.7717 41.1904 27.0728 40.5621 27.5596 40.0941C28.0464 39.626 28.686 39.3499 29.3604 39.3165C29.4485 39.3117 29.5335 39.2822 29.6056 39.2314C29.6776 39.1806 29.734 39.1105 29.7681 39.0292C29.7686 39.0281 29.7692 39.0272 29.7697 39.0261C29.7805 38.9999 29.789 38.9727 29.7949 38.945C29.7955 38.9426 29.7965 38.9405 29.797 38.9381C29.8034 38.9071 29.8066 38.8756 29.8067 38.8439L29.8065 38.8419V20.7222C32.4921 20.658 35.0464 19.5469 36.9242 17.6259C38.8021 15.7048 39.8549 13.126 39.858 10.4396ZM29.5724 1.09151C31.4213 1.09151 33.2286 1.63977 34.7659 2.66695C36.3032 3.69413 37.5014 5.1541 38.2089 6.86224C38.9165 8.57038 39.1016 10.45 38.7409 12.2633C38.3802 14.0767 37.4899 15.7423 36.1825 17.0497C34.8752 18.357 33.2095 19.2474 31.3961 19.6081C29.5828 19.9688 27.7032 19.7836 25.9951 19.0761C24.2869 18.3686 22.8269 17.1704 21.7998 15.6331C20.7726 14.0958 20.2243 12.2885 20.2243 10.4396C20.2271 7.96119 21.2129 5.5851 22.9654 3.8326C24.7179 2.08011 27.094 1.09432 29.5724 1.09151ZM5.33428 10.1705C5.33435 10.1092 5.35873 10.0504 5.40206 10.0071C5.4454 9.96377 5.50416 9.93939 5.56544 9.93932H8.43901C8.5003 9.93939 8.55906 9.96376 8.6024 10.0071C8.64573 10.0504 8.67011 10.1092 8.67018 10.1705L8.67 15.9086L8.01485 15.0363C7.90512 14.8892 7.76301 14.7694 7.59953 14.6862C7.43605 14.6029 7.25559 14.5584 7.07213 14.556C7.06563 14.5559 7.05913 14.5559 7.05254 14.5559C6.87239 14.5554 6.69446 14.5956 6.53206 14.6736C6.36966 14.7516 6.227 14.8653 6.11476 15.0062L5.33428 15.9792V10.1705ZM25.7633 42.1107C25.7621 42.6014 25.8581 43.0875 26.0458 43.5409C26.2335 43.9943 26.5091 44.4061 26.8568 44.7524L26.8571 44.7527C26.911 44.8066 26.9662 44.8586 27.023 44.9088H3.87767C3.25496 44.909 2.64999 44.7014 2.1585 44.3191C1.66702 43.9367 1.31711 43.4013 1.16414 42.7977H18.3197C18.4441 42.7977 18.5633 42.7483 18.6512 42.6604C18.7391 42.5725 18.7885 42.4532 18.7885 42.3289C18.7885 42.2046 18.7391 42.0854 18.6512 41.9975C18.5633 41.9096 18.4441 41.8602 18.3197 41.8602H1.09134C1.15467 41.1646 1.47551 40.5179 1.99095 40.0466C2.50639 39.5753 3.17927 39.3136 3.87767 39.3127H27.0206C26.6246 39.6632 26.3077 40.094 26.0909 40.5764C25.8741 41.0588 25.7625 41.5818 25.7633 42.1107ZM3.87767 38.3752C3.34819 38.3751 2.82476 38.4878 2.34226 38.7059C1.85976 38.924 1.42927 39.2423 1.07946 39.6398L1.07959 39.6372V15.2641C1.08078 14.311 1.41181 13.3877 2.01649 12.6509C2.62116 11.9142 3.46219 11.4094 4.39677 11.2224V16.0199C4.39522 16.2115 4.45399 16.3988 4.56475 16.5551C4.67551 16.7114 4.83266 16.829 5.01393 16.891C5.114 16.9264 5.21935 16.9446 5.32549 16.9448C5.4631 16.9445 5.59888 16.9132 5.72265 16.8531C5.84643 16.7929 5.955 16.7056 6.04024 16.5976L6.84609 15.5927C6.87138 15.5611 6.90356 15.5357 6.94018 15.5185C6.97678 15.5013 7.01685 15.4927 7.0573 15.4934C7.0978 15.4937 7.13767 15.5034 7.17376 15.5218C7.20985 15.5402 7.24116 15.5667 7.26522 15.5993L7.94628 16.506C8.06263 16.6608 8.22474 16.7752 8.40968 16.8328C8.59461 16.8905 8.793 16.8885 8.97674 16.8272C9.16049 16.7659 9.32029 16.6483 9.43352 16.4911C9.54675 16.3339 9.60768 16.1451 9.60768 15.9514V11.1428H19.3113C19.4844 13.6206 20.5469 15.9523 22.3032 17.7087C24.0595 19.465 26.3912 20.5275 28.869 20.7006V38.3752H3.87767Z" fill="black"/>
</svg>
